# xmcd CD database file
#
# Track frame offsets:
#	150
#	51248
#	86336
#	115799
#	143340
#
# Disc length: 2323 seconds
#
# Revision: 0
# Processed by: cddbd v1.5.2PL0 Copyright (c) Steve Scherf et al.
# Submitted via: CDex 1.51
#
DISCID=34091105
DTITLE=Jackie McLean  - Hipnosis
DYEAR=1967
DGENRE=Jazz
TTITLE0=Hipnosis (Moncur)
TTITLE1=Slow Poke (McLean)
TTITLE2=The Breakout (McLean)
TTITLE3=Back Home (Moncur)
TTITLE4=The Reason Why (Johnson)
EXTD=YEAR: 1967
EXTT0=
EXTT1=
EXTT2=
EXTT3=
EXTT4=
PLAYORDER=
